<?xml version="1.0" encoding="UTF-8" standalone="no"?>
<svg
   xmlns:dc="http://purl.org/dc/elements/1.1/"
   xmlns:cc="http://creativecommons.org/ns#"
   xmlns:rdf="http://www.w3.org/1999/02/22-rdf-syntax-ns#"
   xmlns:svg="http://www.w3.org/2000/svg"
   xmlns="http://www.w3.org/2000/svg"
   xmlns:sodipodi="http://sodipodi.sourceforge.net/DTD/sodipodi-0.dtd"
   xmlns:inkscape="http://www.inkscape.org/namespaces/inkscape"
   aria-hidden="true"
   focusable="false"
   data-prefix="fas"
   data-icon="bars"
   class="svg-inline--fa fa-bars fa-w-14"
   role="img"
   viewBox="0 0 448 512"
   version="1.1"
   id="svg4"
   sodipodi:docname="bars-solid-white.svg"
   inkscape:version="1.0 (4035a4fb49, 2020-05-01)">
  <metadata
     id="metadata10">
    <rdf:RDF>
      <cc:Work
         rdf:about="">
        <dc:format>image/svg+xml</dc:format>
        <dc:type
           rdf:resource="http://purl.org/dc/dcmitype/StillImage" />
        <dc:title></dc:title>
      </cc:Work>
    </rdf:RDF>
  </metadata>
  <defs
     id="defs8" />
  <sodipodi:namedview
     inkscape:document-rotation="0"
     pagecolor="#ffffff"
     bordercolor="#666666"
     borderopacity="1"
     objecttolerance="10"
     gridtolerance="10"
     guidetolerance="10"
     inkscape:pageopacity="0"
     inkscape:pageshadow="2"
     inkscape:window-width="706"
     inkscape:window-height="480"
     id="namedview6"
     showgrid="false"
     inkscape:zoom="0.51316815"
     inkscape:cx="419.40178"
     inkscape:cy="315.79508"
     inkscape:window-x="0"
     inkscape:window-y="0"
     inkscape:window-maximized="0"
     inkscape:current-layer="svg4" />
  <path
     fill="currentColor"
     d="m 16,132 h 416 c 8.837,0 16,-7.163 16,-16 V 76 c 0,-8.837 -7.163,-16 -16,-16 H 16 C 7.163,60 0,67.163 0,76 v 40 c 0,8.837 7.163,16 16,16 z m 0,160 h 416 c 8.837,0 16,-7.163 16,-16 v -40 c 0,-8.837 -7.163,-16 -16,-16 H 16 c -8.837,0 -16,7.163 -16,16 v 40 c 0,8.837 7.163,16 16,16 z m 0,160 h 416 c 8.837,0 16,-7.163 16,-16 v -40 c 0,-8.837 -7.163,-16 -16,-16 H 16 c -8.837,0 -16,7.163 -16,16 v 40 c 0,8.837 7.163,16 16,16 z"
     id="path2"
     style="fill:#ffffff" />
</svg>
